<svg xmlns="http://www.w3.org/2000/svg" width="1024" height="1024" viewBox="0 0 1024 1024">
  <defs>
    <linearGradient id="bg" x1="0" y1="0" x2="1" y2="1">
      <stop offset="0%" stop-color="#9B5AFF"/>
      <stop offset="100%" stop-color="#5200CC"/>
    </linearGradient>
    <radialGradient id="shine" cx="0.28" cy="0.22" r="0.65">
      <stop offset="0%" stop-color="rgba(255,255,255,0.12)"/>
      <stop offset="100%" stop-color="rgba(255,255,255,0)"/>
    </radialGradient>
  </defs>
  <rect width="1024" height="1024" rx="224" fill="url(#bg)"/>
  <rect width="1024" height="1024" rx="224" fill="url(#shine)"/>
  <g transform="translate(512,512)">
    <polygon points="0,-204 177,-102 177,102 0,204 -177,102 -177,-102"
             fill="none" stroke="rgba(255,255,255,0.92)" stroke-width="20" stroke-linejoin="round"/>
    <line x1="0" y1="-204" x2="0" y2="204" stroke="rgba(255,255,255,0.12)" stroke-width="4"/>
    <line x1="177" y1="-102" x2="-177" y2="102" stroke="rgba(255,255,255,0.12)" stroke-width="4"/>
    <line x1="177" y1="102" x2="-177" y2="-102" stroke="rgba(255,255,255,0.12)" stroke-width="4"/>
    <polygon points="0,-120 104,-60 104,60 0,120 -104,60 -104,-60"
             fill="none" stroke="rgba(255,255,255,0.25)" stroke-width="6" stroke-linejoin="round"/>
    <circle cx="0" cy="0" r="28" fill="none" stroke="rgba(255,255,255,0.85)" stroke-width="8"/>
    <circle cx="0" cy="-204" r="28" fill="rgba(255,255,255,0.95)"/>
    <circle cx="177" cy="-102" r="28" fill="rgba(255,255,255,0.95)"/>
    <circle cx="177" cy="102" r="28" fill="rgba(255,255,255,0.95)"/>
    <circle cx="0" cy="204" r="28" fill="rgba(255,255,255,0.95)"/>
    <circle cx="-177" cy="102" r="28" fill="rgba(255,255,255,0.95)"/>
    <circle cx="-177" cy="-102" r="28" fill="rgba(255,255,255,0.95)"/>
  </g>
</svg>
